<?xml version="1.0" encoding="UTF-8"?>
<!-- Generator: visioncortex VTracer -->
<svg id="svg" version="1.1" xmlns="http://www.w3.org/2000/svg" style="display: block;" viewBox="0 0 2500 2500"><path d="M0,0 L6,0 L22,10 L38,20 L58,33 L81,48 L104,63 L127,78 L147,91 L170,106 L193,121 L216,136 L239,151 L262,166 L285,181 L308,196 L331,211 L354,226 L377,241 L400,256 L423,271 L446,286 L469,301 L492,316 L515,331 L538,346 L561,361 L584,376 L607,391 L630,406 L653,421 L676,436 L699,451 L722,466 L745,481 L768,496 L791,511 L814,526 L837,541 L860,556 L883,571 L906,586 L929,601 L952,616 L975,631 L998,646 L1021,661 L1035,670 L1035,737 L977,737 L977,1066 L888,1066 L888,737 L829,737 L829,671 L964,670 L938,653 L915,638 L895,625 L872,610 L849,595 L826,580 L803,565 L780,550 L757,535 L734,520 L711,505 L688,490 L665,475 L642,460 L619,445 L596,430 L573,415 L550,400 L527,385 L504,370 L481,355 L458,340 L435,325 L412,310 L389,295 L366,280 L343,265 L320,250 L297,235 L274,220 L251,205 L228,190 L205,175 L182,160 L159,145 L136,130 L113,115 L90,100 L67,85 L44,70 L21,55 L4,44 L-1,46 L-26,62 L-41,72 L-61,85 L-84,100 L-101,111 L-117,121 L-117,124 L-95,138 L-80,148 L-60,161 L-37,176 L-14,191 L9,206 L32,221 L55,236 L78,251 L101,266 L124,281 L147,296 L170,311 L193,326 L216,341 L239,356 L262,371 L285,386 L308,401 L331,416 L354,431 L377,446 L400,461 L423,476 L446,491 L469,506 L492,521 L515,536 L538,551 L561,566 L584,581 L607,596 L630,611 L653,626 L676,641 L699,656 L720,670 L721,671 L721,737 L662,737 L662,1066 L573,1066 L573,737 L514,737 L514,671 L650,670 L628,656 L601,638 L585,628 L570,618 L550,605 L527,590 L504,575 L481,560 L458,545 L435,530 L412,515 L389,500 L366,485 L343,470 L320,455 L297,440 L274,425 L251,410 L228,395 L205,380 L182,365 L159,350 L136,335 L113,320 L90,305 L67,290 L44,275 L21,260 L-2,245 L-25,230 L-48,215 L-71,200 L-94,185 L-117,170 L-140,155 L-163,140 L-186,125 L-209,110 L-232,95 L-255,80 L-272,69 L-281,74 L-307,91 L-333,108 L-356,123 L-379,138 L-402,153 L-425,168 L-448,183 L-471,198 L-497,215 L-520,230 L-543,245 L-566,260 L-589,275 L-612,290 L-635,305 L-658,320 L-681,335 L-704,350 L-727,365 L-750,380 L-773,395 L-796,410 L-819,425 L-842,440 L-865,455 L-888,470 L-911,485 L-934,500 L-957,515 L-980,530 L-1003,545 L-1026,560 L-1049,575 L-1075,592 L-1098,607 L-1121,622 L-1144,637 L-1167,652 L-1190,667 L-1195,670 L-1092,671 L-1092,731 L-1175,731 L-1175,829 L-1103,829 L-1103,891 L-1175,891 L-1175,1066 L-1263,1066 L-1263,671 L-1258,666 L-1243,656 L-1220,641 L-1194,624 L-1171,609 L-1148,594 L-1125,579 L-1102,564 L-1079,549 L-1056,534 L-1030,517 L-1007,502 L-984,487 L-961,472 L-938,457 L-915,442 L-892,427 L-869,412 L-868,87 L-867,76 L-754,76 L-639,77 L-639,262 L-616,247 L-593,232 L-570,217 L-547,202 L-524,187 L-501,172 L-478,157 L-452,140 L-429,125 L-406,110 L-383,95 L-360,80 L-337,65 L-314,50 L-291,35 L-276,25 L-270,25 L-254,35 L-238,45 L-218,58 L-195,73 L-172,88 L-155,99 L-146,94 L-117,75 L-94,60 L-74,47 L-58,37 L-32,20 L-14,9 Z M-832,112 L-832,388 L-821,382 L-800,368 L-777,353 L-754,338 L-731,323 L-708,308 L-685,293 L-676,287 L-676,113 L-753,112 Z " transform="translate(1376,478)" style="fill: #FFFFFF;"/><path d="M0,0 L75,0 L77,13 L98,223 L100,212 L127,1 L187,1 L217,224 L240,0 L314,0 L313,17 L268,393 L267,395 L190,395 L183,347 L158,170 L157,166 L127,392 L126,395 L48,395 L45,375 L0,2 Z " transform="translate(772,1149)" style="fill: #FFFFFF;"/><path d="M0,0 L38,0 L58,3 L73,7 L85,12 L99,21 L111,33 L120,47 L125,59 L129,72 L132,88 L133,96 L133,149 L47,149 L46,95 L44,80 L39,70 L33,65 L26,63 L13,63 L3,67 L-2,72 L-7,82 L-9,94 L-9,310 L-6,326 L0,336 L5,340 L11,342 L28,342 L36,338 L42,330 L45,319 L46,310 L47,254 L133,254 L133,307 L129,331 L124,348 L116,364 L108,375 L98,385 L84,394 L72,399 L58,403 L38,406 L0,406 L-19,403 L-34,399 L-51,391 L-63,382 L-75,370 L-84,356 L-90,342 L-95,323 L-98,305 L-99,296 L-99,110 L-96,88 L-93,74 L-87,56 L-82,46 L-74,35 L-67,27 L-53,16 L-34,7 L-15,2 Z " transform="translate(1320,1144)" style="fill: #FFFFFF;"/><path d="M0,0 L101,0 L106,24 L137,191 L169,363 L174,390 L174,395 L93,395 L87,359 L80,315 L80,312 L23,312 L20,334 L10,395 L-74,395 L-69,366 L-38,202 L-6,32 Z M51,111 L47,137 L31,254 L31,259 L72,259 L65,206 L52,111 Z " transform="translate(477,1149)" style="fill: #FFFFFF;"/><path d="M0,0 L178,0 L178,60 L88,60 L88,157 L157,157 L157,219 L88,219 L88,336 L179,336 L179,395 L0,395 Z " transform="translate(1598,1149)" style="fill: #FFFFFF;"/><path d="M0,0 L76,0 L92,3 L104,7 L113,13 L118,18 L124,26 L129,38 L131,48 L131,68 L128,80 L123,90 L115,98 L103,104 L114,108 L124,115 L131,125 L136,137 L138,147 L138,169 L135,183 L131,195 L124,205 L116,213 L100,221 L94,223 L82,225 L1,225 L0,224 Z M52,34 L51,35 L51,89 L69,89 L77,86 L82,81 L84,78 L86,70 L86,54 L83,46 L79,40 L72,36 L62,34 Z M51,124 L51,189 L65,189 L75,187 L81,183 L86,176 L89,161 L88,145 L86,136 L80,128 L72,124 Z " transform="translate(710,1685)" style="fill: #FFFFFF;"/><path d="M0,0 L76,0 L89,2 L103,7 L111,11 L122,22 L129,36 L132,51 L133,57 L133,167 L131,181 L126,195 L120,205 L112,213 L100,219 L88,223 L75,225 L1,225 L0,224 Z M51,36 L51,190 L60,190 L73,187 L78,182 L80,175 L81,164 L81,58 L79,45 L75,39 L66,36 Z " transform="translate(1464,1685)" style="fill: #FFFFFF;"/><path d="M0,0 L50,0 L51,172 L53,182 L57,188 L61,190 L71,190 L77,187 L81,179 L82,166 L83,0 L133,0 L134,1 L134,164 L131,185 L127,198 L120,209 L113,216 L106,221 L96,225 L83,228 L51,228 L37,225 L27,221 L16,213 L8,202 L2,186 L0,176 Z " transform="translate(927,1685)" style="fill: #FFFFFF;"/><path d="M0,0 L27,0 L40,4 L50,10 L55,15 L61,22 L68,39 L70,50 L70,64 L67,66 L31,70 L26,69 L25,54 L22,43 L18,39 L11,38 L5,41 L2,46 L1,50 L1,61 L4,71 L15,84 L29,97 L40,106 L47,113 L52,118 L62,130 L69,142 L73,153 L75,163 L75,183 L72,194 L65,208 L56,218 L44,226 L36,229 L28,231 L2,231 L-13,227 L-25,221 L-28,219 L-28,217 L-32,215 L-33,212 L-35,212 L-42,200 L-47,186 L-49,176 L-49,159 L-29,155 L-14,153 L-6,153 L-5,155 L-3,176 L1,185 L6,190 L9,191 L17,191 L22,188 L23,185 L23,166 L19,156 L11,145 L4,138 L-4,131 L-18,119 L-23,115 L-28,110 L-28,108 L-30,108 L-40,95 L-46,83 L-49,72 L-49,46 L-44,30 L-38,21 L-32,14 L-21,7 L-9,2 Z " transform="translate(1726,1682)" style="fill: #FFFFFF;"/><path d="M0,0 L50,0 L51,3 L51,188 L50,190 L101,190 L102,192 L102,223 L100,225 L1,225 L0,224 Z " transform="translate(1286,1685)" style="fill: #FFFFFF;"/><path d="M0,0 L50,0 L51,2 L51,223 L50,225 L1,225 L0,224 Z " transform="translate(1147,1685)" style="fill: #FFFFFF;"/></svg>